<?xml version="1.0" encoding="utf-8"?>
<!-- Generator: Adobe Illustrator 17.0.0, SVG Export Plug-In . SVG Version: 6.00 Build 0)  -->
<!DOCTYPE svg PUBLIC "-//W3C//DTD SVG 1.1//EN" "http://www.w3.org/Graphics/SVG/1.1/DTD/svg11.dtd">
<svg version="1.1" id="レイヤー_1" xmlns="http://www.w3.org/2000/svg" xmlns:xlink="http://www.w3.org/1999/xlink" x="0px"
	 y="0px" width="72px" height="51.217px" viewBox="0 0 72 51.217" enable-background="new 0 0 72 51.217" xml:space="preserve">
<g id="TechFeed_Logo">
	<g>
		<g>
			<rect x="18" y="0" fill="#393939" width="36" height="36"/>
			<rect x="24" y="25.241" fill="#F0B119" width="4.643" height="4.643"/>
			<rect x="24" y="15.954" fill="#F0B119" width="14.323" height="4.643"/>
			<rect x="24" y="6.668" fill="#F0B119" width="23.233" height="4.643"/>
			<rect x="33.679" y="15.954" fill="#F0B119" width="4.643" height="14.046"/>
			<rect x="42.59" y="6.668" fill="#F0B119" width="4.643" height="23.217"/>
		</g>
		<g>
			<path fill="#514E47" d="M8.142,44.423H4.826v6.794H3.322v-6.794H0v-1.505h8.142V44.423z"/>
			<path fill="#514E47" d="M16.747,51.217h-5.428c-0.208,0-0.436-0.037-0.683-0.11s-0.475-0.194-0.685-0.362
				c-0.21-0.168-0.386-0.386-0.527-0.654c-0.141-0.268-0.212-0.597-0.212-0.987v-5.428c0-0.104,0.019-0.203,0.058-0.295
				s0.093-0.174,0.16-0.243c0.068-0.069,0.147-0.123,0.239-0.162c0.093-0.039,0.193-0.058,0.301-0.058h6.776v1.505h-6.03v4.682
				c0,0.197,0.052,0.347,0.156,0.451c0.104,0.104,0.257,0.156,0.457,0.156h5.416V51.217z M16.07,47.826h-4.751V46.31h4.751V47.826z"
				/>
			<path fill="#514E47" d="M25.578,51.217H20.15c-0.139,0-0.287-0.016-0.448-0.049c-0.16-0.033-0.318-0.084-0.475-0.153
				c-0.156-0.069-0.307-0.159-0.449-0.269c-0.143-0.11-0.268-0.243-0.378-0.399c-0.11-0.156-0.199-0.338-0.264-0.544
				c-0.066-0.206-0.098-0.439-0.098-0.697v-4.074c0-0.139,0.017-0.288,0.05-0.448c0.033-0.16,0.083-0.318,0.152-0.475
				s0.16-0.306,0.272-0.448s0.247-0.269,0.403-0.379c0.156-0.11,0.336-0.198,0.54-0.263c0.204-0.066,0.436-0.098,0.694-0.098h5.428
				v1.505H20.15c-0.197,0-0.347,0.052-0.451,0.156c-0.104,0.104-0.156,0.258-0.156,0.463v4.062c0,0.193,0.054,0.342,0.16,0.448
				c0.106,0.106,0.255,0.159,0.448,0.159h5.428V51.217z"/>
			<path fill="#514E47" d="M28.518,46.31h5.283v-3.391h1.505v8.298h-1.505v-3.391h-5.283v3.391h-1.505v-8.298h1.505V46.31z"/>
			<path fill="#514E47" d="M44.599,44.423h-6.03v6.794h-1.505v-7.54c0-0.104,0.019-0.203,0.058-0.295s0.093-0.174,0.16-0.243
				c0.068-0.069,0.147-0.123,0.239-0.162c0.093-0.039,0.193-0.058,0.301-0.058h6.776V44.423z M43.928,47.826h-4.757V46.31h4.757
				V47.826z"/>
			<path fill="#514E47" d="M53.314,51.217h-5.428c-0.208,0-0.436-0.037-0.683-0.11s-0.475-0.194-0.685-0.362
				c-0.21-0.168-0.386-0.386-0.527-0.654s-0.212-0.597-0.212-0.987v-5.428c0-0.104,0.019-0.203,0.058-0.295s0.093-0.174,0.16-0.243
				c0.068-0.069,0.147-0.123,0.239-0.162c0.093-0.039,0.193-0.058,0.301-0.058h6.776v1.505h-6.03v4.682
				c0,0.197,0.052,0.347,0.156,0.451c0.104,0.104,0.257,0.156,0.457,0.156h5.416V51.217z M52.637,47.826h-4.751V46.31h4.751V47.826z
				"/>
			<path fill="#514E47" d="M62.266,51.217h-5.428c-0.208,0-0.436-0.037-0.683-0.11s-0.475-0.194-0.685-0.362
				c-0.21-0.168-0.386-0.386-0.527-0.654s-0.212-0.597-0.212-0.987v-5.428c0-0.104,0.019-0.203,0.058-0.295s0.093-0.174,0.16-0.243
				c0.068-0.069,0.147-0.123,0.239-0.162c0.093-0.039,0.193-0.058,0.301-0.058h6.776v1.505h-6.03v4.682
				c0,0.197,0.052,0.347,0.156,0.451c0.104,0.104,0.257,0.156,0.457,0.156h5.416V51.217z M61.589,47.826h-4.751V46.31h4.751V47.826z
				"/>
			<path fill="#514E47" d="M72,47.745c0,0.505-0.087,0.97-0.262,1.395c-0.176,0.424-0.419,0.79-0.727,1.097
				c-0.309,0.307-0.675,0.547-1.1,0.72c-0.424,0.174-0.885,0.26-1.383,0.26h-4.062c-0.108,0-0.208-0.019-0.301-0.058
				c-0.093-0.039-0.172-0.092-0.239-0.159s-0.122-0.148-0.16-0.24c-0.039-0.093-0.058-0.193-0.058-0.301v-6.782
				c0-0.104,0.019-0.203,0.058-0.295c0.039-0.093,0.093-0.174,0.16-0.243c0.068-0.069,0.147-0.123,0.239-0.162
				c0.093-0.039,0.193-0.058,0.301-0.058h4.062c0.498,0,0.959,0.087,1.383,0.26c0.424,0.174,0.791,0.414,1.1,0.72
				c0.309,0.307,0.552,0.673,0.727,1.1C71.913,45.425,72,45.889,72,46.391V47.745z M70.495,46.391c0-0.293-0.046-0.561-0.141-0.804
				c-0.095-0.243-0.23-0.45-0.403-0.622c-0.174-0.172-0.38-0.305-0.621-0.399s-0.509-0.142-0.802-0.142h-3.316v5.289h3.316
				c0.293,0,0.561-0.047,0.802-0.142c0.241-0.095,0.448-0.228,0.621-0.399c0.174-0.172,0.309-0.378,0.403-0.619
				c0.095-0.241,0.141-0.51,0.141-0.807V46.391z"/>
		</g>
	</g>
</g>
</svg>
